# xmcd
#
# Track frame offsets:
# 150
# 16602
# 31232
# 49655
# 63493
#
# Disc length: 994 seconds
#
#
# Revision: 0
# Processed by: cddbd v1.5.2PL0 Copyright (c) Steve Scherf et al.
# Submitted via: FreeRIP 2.96 
#
DISCID=3203e005
DTITLE=Hannah Prestridge - Roller Coaster
DYEAR=2011
DGENRE=Folk
TTITLE0=Roller Coaster
TTITLE1=Crazy In Love
TTITLE2=Breakdown
TTITLE3=Life's All About
TTITLE4=Walk Away
EXTD=www.hanahprestridge.com
EXTT0=
EXTT1=
EXTT2=
EXTT3=
EXTT4=
PLAYORDER=
